<?xml version="1.0" encoding="UTF-8"?>
<!DOCTYPE svg PUBLIC "-//W3C//DTD SVG 1.1//EN" "http://www.w3.org/Graphics/SVG/1.1/DTD/svg11.dtd">
<!-- Creator: CorelDRAW 2020 (64-Bit) -->
<svg xmlns="http://www.w3.org/2000/svg" xml:space="preserve" width="50mm" height="10mm" version="1.1" style="shape-rendering:geometricPrecision; text-rendering:geometricPrecision; image-rendering:optimizeQuality; fill-rule:evenodd; clip-rule:evenodd"
viewBox="0 0 5000 1000"
 xmlns:xlink="http://www.w3.org/1999/xlink"
 xmlns:xodm="http://www.corel.com/coreldraw/odm/2003">
 <defs>
  <style type="text/css">
   <![CDATA[
    .fil4 {fill:#FEFEFE}
    .fil0 {fill:#0969C3}
    .fil3 {fill:#2B2A29;fill-rule:nonzero}
    .fil2 {fill:#2B2A29;fill-rule:nonzero}
    .fil1 {fill:#0969C3;fill-rule:nonzero}
   ]]>
  </style>
 </defs>
 <g id="Слой_x0020_1">
  <metadata id="CorelCorpID_0Corel-Layer"/>
  <rect class="fil0" x="2707.94" y="184.79" width="599.14" height="599.14" rx="100" ry="100"/>
  <path class="fil1" d="M1298.65 206.5l117.12 0 0 117.13 0 48.57 0 100.38 0 100.37c0,47.9 -4.17,84.81 -12.65,110.63 -11.31,33.68 -31.77,60.73 -61.51,81.21 -29.65,20.3 -68.81,30.54 -117.54,30.54 -57.07,0 -100.95,-15.86 -131.66,-47.79 -28.78,-29.81 -44.2,-72.66 -46.32,-128.43l112.28 0c2.34,20.12 6.46,35.09 12.52,44.96 12.52,20.73 31.5,31.11 57.11,31.11 25.69,0 44.02,-7.42 54.65,-22.36 10.63,-14.8 16,-45.63 16,-92.49l0 -107.75 0 -100.38 0 -48.57 0 -117.13zm217.42 292.66c0,-58.95 8.87,-108.51 26.5,-148.62 13.07,-29.46 31.11,-55.99 53.86,-79.41 22.74,-23.42 47.64,-40.8 74.71,-52.22 36.08,-15.24 77.68,-22.92 124.81,-22.92 85.33,0 153.47,26.53 204.75,79.43 51.15,53.05 76.74,126.67 76.74,221.05 0,93.59 -25.46,166.79 -76.21,219.57 -50.73,52.9 -118.74,79.29 -203.69,79.29 -86.02,0 -154.52,-26.24 -205.27,-78.89 -50.76,-52.51 -76.2,-124.93 -76.2,-217.28zm120.34 -3.88c0,65.55 15.22,115.22 45.5,149.14 30.3,33.78 68.8,50.76 115.38,50.76 46.72,0 84.95,-16.84 114.97,-50.35 29.86,-33.65 44.81,-84 44.81,-151.19 0,-66.36 -14.53,-115.89 -43.74,-148.46 -29.09,-32.76 -67.71,-49.02 -116.04,-49.02 -48.2,0 -87.11,16.55 -116.59,49.55 -29.49,33.1 -44.29,82.92 -44.29,149.57zm532.15 -288.78l231.29 0c45.93,0 79.94,1.9 102.44,5.67 22.61,3.89 42.65,11.84 60.44,23.81 17.78,12.13 32.58,28.15 44.45,48.21 11.83,20.06 17.76,42.68 17.76,67.56 0,26.94 -7.29,51.84 -21.81,74.3 -14.56,22.64 -34.33,39.44 -59.24,50.76 35.14,10.39 62.08,27.88 81.05,52.66 18.84,24.75 28.27,53.83 28.27,87.36 0,26.38 -6.05,51.95 -18.29,76.85 -12.26,24.92 -28.95,44.84 -50.24,59.77 -21.14,14.82 -47.28,23.97 -78.34,27.46 -19.39,2.05 -66.39,3.38 -140.79,3.93l-196.99 0 0 -578.34zm117.14 96.12l0 133.28 76.47 0c45.35,0 73.61,-0.68 84.65,-2.04 19.93,-2.29 35.68,-9.13 47.11,-20.55 11.44,-11.48 17.12,-26.41 17.12,-44.99 0,-17.91 -5,-32.32 -14.82,-43.5 -9.84,-11.16 -24.51,-17.89 -43.88,-20.18 -11.57,-1.35 -44.83,-2.02 -99.62,-2.02l-67.03 0zm0 229.41l0 155.08 108.22 0c42.02,0 68.81,-1.22 80.11,-3.53 17.37,-3.21 31.49,-10.87 42.41,-23.13 10.89,-12.37 16.4,-28.66 16.4,-49.27 0,-17.51 -4.15,-32.16 -12.64,-44.3 -8.35,-12.12 -20.59,-21 -36.49,-26.51 -15.89,-5.53 -50.49,-8.34 -103.63,-8.34l-94.38 0zm1058.59 252.81l199.66 -301.56 -181.07 -276.78 136.36 0 113.9 172.19 113.9 -172.19 136.64 0 -181.49 276.93 199.24 301.41 -140.24 0 -128.18 -195.89 -128.3 195.89 -140.42 0z"/>
  <path class="fil2" d="M3941.61 784.83l0 -117.13 117.14 0 0 117.13 -117.14 0zm0 -165.71l0 -412.61 245.97 0c61.78,0 106.75,5.29 134.74,15.61 28.13,10.38 50.53,28.79 67.32,55.33 16.84,26.64 25.3,56.94 25.3,91.13 0,43.48 -12.65,79.31 -38.09,107.57 -25.43,28.24 -63.4,46.04 -114.02,53.45 25.17,14.67 45.89,30.87 62.18,48.46 16.37,17.67 38.26,49.17 66.25,93.95l70.54 112.82 -139.61 0 -83.73 -126.27c-29.8,-44.95 -50.64,-73.12 -61.8,-84.81 -11.03,-11.56 -22.74,-19.67 -35.12,-23.97 -12.5,-4.33 -32.21,-6.46 -59.11,-6.46l-23.68 0 0 75.8 -117.14 0zm117.14 -167.89l86.41 0c56,0 90.9,-2.38 104.87,-7.11 13.87,-4.68 24.88,-12.98 32.72,-24.52 7.88,-11.56 11.85,-26.1 11.85,-43.47 0,-19.53 -5.23,-35.16 -15.63,-47.26 -10.3,-12 -25.01,-19.67 -43.88,-22.61 -9.54,-1.49 -37.97,-2.02 -85.22,-2.02l-91.12 0 0 146.99zm466.17 -244.72l117.13 0 0 313.39c0,49.76 1.32,82.05 4.29,96.66 4.83,23.7 16.72,42.78 35.28,57.07 18.72,14.39 44.15,21.54 76.46,21.54 32.72,0 57.48,-6.73 74.18,-20.32 16.68,-13.58 26.64,-30.16 30.01,-49.95 3.36,-19.76 5.14,-52.51 5.14,-98.26l0 -320.13 117.11 0 0 304.1c0,69.43 -3.11,118.6 -9.43,147.28 -6.31,28.64 -17.93,52.87 -34.86,72.7 -16.86,19.75 -39.45,35.45 -67.71,47.11 -28.37,11.73 -65.29,17.63 -110.93,17.63 -55.07,0 -96.82,-6.34 -125.21,-19.12 -28.37,-12.77 -50.9,-29.37 -67.45,-49.8 -16.56,-20.45 -27.36,-41.75 -32.57,-64.22 -7.69,-33.11 -11.44,-82.11 -11.44,-146.87l0 -308.81z"/>
  <path class="fil3" d="M2.16 795.33l0 -578.33 175.4 0 103.66 394.43 102.44 -394.43 175.81 0 0 578.33 -108.22 0 -0.4 -455.3 -114.03 455.3 -112.55 0 -113.49 -455.3 -0.4 455.3 -108.22 0zm826.28 0l0 -243.39 -212.02 -334.94 136.91 0 136.76 228.99 133.14 -228.99 134.37 0 -212.04 335.74 0 242.59 -117.12 0z"/>
  <path class="fil4" d="M2989.51 477.17l36 0 0 36 -36 0 0 -36zm90.91 -162.71l-0.91 0c-2.95,-9.9 -13.58,-19.06 -23.48,-19.06l-97.04 0c-9.9,0 -20.54,9.16 -23.48,19.06l-0.93 0 0 12.17c-0.03,1.33 -0.04,2.59 0,3.77l0 18.4 -99.26 0c-15.01,0 -28.18,11.08 -28.18,25.83l0 23.78 0 38.84 0 0.31 0 111 0.67 0 0 50.71c0,17.95 9.44,32.09 25.83,32.09l348.25 -2.26c16.39,0 25.83,-14.14 25.83,-32.09l0 -48.45 0.16 0 0 -111 0 -0.31 0 -38.84 0 -23.78c0,-14.75 -13.17,-25.83 -28.18,-25.83l-99.28 0 0 -17.98c0.2,-2.57 0.1,-5.26 0,-7.6l0 -8.76zm-18.24 8.99l0 5.89 0 2.19 0 17.27 -109.36 0 0 -24.34c0.87,-8.77 4.31,-11.06 13.99,-11.06l81.4 0c11.23,0 13.57,4.61 13.97,10.05zm126.91 158.7l0 -21.47c-2.83,0.94 -6.01,1.61 -10.11,2.47 -14.66,3.04 -30.35,6.56 -44.83,9.95l-89.85 19.72 0 26.61c0,5.55 -2.43,11.75 -7.05,11.75l-59.48 0c-1.76,0 -4.77,-2.59 -5.49,-3.91 -2.59,-4.74 -1.55,-27.34 -1.56,-34.45l-22.7 -4.7c-7.52,-1.77 -14.53,-3.3 -22.36,-5.03l-89.62 -19.94c-4.1,-0.86 -7.28,-1.53 -10.11,-2.47l0 21.97c0.45,1.35 0.7,2.89 0.71,4.65l-0.05 100.23c0,11.37 -2.06,22.27 5.81,24.73 2.48,0.76 5.39,1.09 8.28,1.09l334.17 -2.26c6.66,0 11.95,-0.83 13.53,-6.81 1.49,-5.63 0.17,-102.84 0.51,-120.03 0.01,-0.74 0.09,-1.44 0.2,-2.1zm-363.16 -46.46l0 -37.28 0 -24.56c0,-1.83 2,-3.76 3.24,-4.58 1.67,-1.11 3.47,-1.68 6.15,-1.68l344.38 0c4.86,0 9.39,2.79 9.39,6.26l0 24.56 0 37.28c0,7.2 -7.44,7.97 -13.3,9.4 -28.64,6.95 -63.58,14 -93.44,20.81 -5.1,1.16 -33.94,8.14 -38.05,8.14 0,-6.5 0.1,-15.66 -8.61,-15.66l-56.36 0c-8.71,0 -8.61,9.16 -8.61,15.66 -3.89,0 -33.02,-6.96 -37.41,-7.99l-93.46 -20.8c-6.33,-1.5 -13.92,-2.08 -13.92,-9.56z"/>
 </g>
</svg>
