<?xml version="1.0" encoding="UTF-8"?>
<!DOCTYPE svg PUBLIC "-//W3C//DTD SVG 1.1//EN" "http://www.w3.org/Graphics/SVG/1.1/DTD/svg11.dtd">
<!-- Creator: CorelDRAW 2020 (64-Bit) -->
<svg xmlns="http://www.w3.org/2000/svg" xml:space="preserve" width="50mm"
     height="10mm" version="1.1"
     style="shape-rendering:geometricPrecision; text-rendering:geometricPrecision; image-rendering:optimizeQuality; fill-rule:evenodd; clip-rule:evenodd"
     viewBox="0 0 5000 1000"
     xmlns:xlink="http://www.w3.org/1999/xlink"
     xmlns:xodm="http://www.corel.com/coreldraw/odm/2003"
     xmlns:xsi="http://www.w3.org/2001/XMLSchema-instance"
     xsi:schemaLocation="http://www.corel.com/coreldraw/odm/2003 ">
 <defs>
  <style type="text/css">
   <![CDATA[
    .fil2 {fill:#FEFEFE}
    .fil0 {fill:#0969C3}
    .fil1 {fill:#0969C3;fill-rule:nonzero}
   ]]>
  </style>
 </defs>
 <g id="Слой_x0020_1">
  <metadata id="CorelCorpID_0Corel-Layer"/>
  <rect class="fil0" x="2740.06" y="52.68" width="907.29" height="907.29"
        rx="151.43" ry="151.43"/>
  <path class="fil1"
        d="M605.95 85.56l177.36 0 0 177.37 0 73.55 0 152 0 152c0,72.53 -6.32,128.42 -19.16,167.52 -17.13,51.01 -48.11,91.97 -93.14,122.98 -44.9,30.74 -104.2,46.25 -178,46.25 -86.42,0 -152.87,-24.02 -199.37,-72.37 -43.58,-45.14 -66.93,-110.03 -70.14,-194.48l170.02 0c3.55,30.46 9.78,53.13 18.96,68.08 18.96,31.39 47.7,47.11 86.48,47.11 38.91,0 66.66,-11.24 82.76,-33.86 16.1,-22.41 24.23,-69.1 24.23,-140.06l0 -163.17 0 -152 0 -73.55 0 -177.37zm329.24 443.17c0,-89.26 13.43,-164.31 40.13,-225.05 19.79,-44.61 47.11,-84.79 81.56,-120.25 34.44,-35.47 72.14,-61.79 113.14,-79.08 54.63,-23.08 117.63,-34.71 189,-34.71 129.21,0 232.4,40.17 310.05,120.28 77.46,80.34 116.21,191.82 116.21,334.74 0,141.73 -38.55,252.57 -115.4,332.5 -76.82,80.11 -179.81,120.07 -308.45,120.07 -130.26,0 -234,-39.74 -310.85,-119.47 -76.86,-79.51 -115.39,-189.18 -115.39,-329.03zm182.23 -5.87c0,99.26 23.05,174.48 68.91,225.84 45.88,51.16 104.18,76.87 174.72,76.87 70.75,0 128.64,-25.5 174.1,-76.25 45.22,-50.95 67.85,-127.2 67.85,-228.94 0,-100.49 -22,-175.5 -66.23,-224.82 -44.05,-49.61 -102.54,-74.23 -175.72,-74.23 -72.99,0 -131.91,25.06 -176.56,75.03 -44.65,50.13 -67.07,125.57 -67.07,226.5zm805.85 -437.3l350.24 0c69.56,0 121.06,2.87 155.13,8.58 34.24,5.89 64.58,17.93 91.52,36.06 26.93,18.37 49.34,42.63 67.32,73 17.91,30.38 26.89,64.63 26.89,102.31 0,40.8 -11.04,78.5 -33.03,112.51 -22.05,34.29 -51.98,59.73 -89.71,76.87 53.22,15.73 94.01,42.22 122.74,79.74 28.53,37.48 42.81,81.52 42.81,132.29 0,39.95 -9.16,78.67 -27.7,116.38 -18.56,37.74 -43.84,67.9 -76.08,90.51 -32.01,22.44 -71.59,36.3 -118.63,41.58 -29.36,3.11 -100.53,5.12 -213.2,5.95l-298.3 0 0 -875.78zm177.38 145.55l0 201.83 115.8 0c68.68,0 111.47,-1.03 128.19,-3.09 30.18,-3.47 54.03,-13.83 71.34,-31.12 17.32,-17.38 25.92,-39.99 25.92,-68.13 0,-27.12 -7.57,-48.94 -22.44,-65.87 -14.9,-16.9 -37.11,-27.09 -66.45,-30.56 -17.52,-2.04 -67.88,-3.06 -150.85,-3.06l-101.51 0zm0 347.4l0 234.84 163.88 0c63.63,0 104.2,-1.85 121.31,-5.35 26.31,-4.86 47.69,-16.46 64.23,-35.02 16.49,-18.73 24.83,-43.4 24.83,-74.61 0,-26.52 -6.28,-48.7 -19.14,-67.09 -12.64,-18.35 -31.18,-31.8 -55.26,-40.14 -24.06,-8.37 -76.45,-12.63 -156.93,-12.63l-142.92 0zm1603.04 382.83l302.35 -456.65 -274.2 -419.13 206.49 0 172.48 260.75 172.49 -260.75 206.91 0 -274.83 419.35 301.71 456.43 -212.37 0 -194.1 -296.64 -194.29 296.64 -212.64 0z"/>
  <path class="fil2"
        d="M3166.44 495.43l54.52 0 0 54.52 -54.52 0 0 -54.52zm137.67 -246.39l-1.38 0c-4.47,-14.99 -20.56,-28.86 -35.55,-28.86l-146.95 0c-15,0 -31.11,13.87 -35.56,28.86l-1.41 0 0 18.43c-0.04,2.01 -0.06,3.92 0,5.71l0 27.86 -150.31 0c-22.73,0 -42.67,16.78 -42.67,39.12l0 36.01 0 58.81 0 0.47 0 168.09 1.01 0 0 76.79c0,27.18 14.3,48.6 39.12,48.6l527.36 -3.43c24.82,0 39.11,-21.41 39.11,-48.59l0 -73.37 0.24 0 0 -168.09 0 -0.47 0 -58.81 0 -36.01c0,-22.34 -19.94,-39.12 -42.67,-39.12l-150.34 0 0 -27.22c0.3,-3.9 0.15,-7.97 0,-11.51l0 -13.27zm-27.62 13.61l0 8.92 0 3.32 0 26.15 -165.61 0 0 -36.86c1.32,-13.28 6.53,-16.74 21.19,-16.74l123.26 0c17.01,0 20.55,6.98 21.16,15.21zm192.18 240.33l0 -32.52c-4.29,1.43 -9.1,2.44 -15.31,3.74 -22.2,4.61 -45.96,9.94 -67.89,15.07l-136.06 29.86 0 40.3c0,8.4 -3.68,17.79 -10.67,17.79l-90.07 0c-2.67,0 -7.23,-3.92 -8.32,-5.92 -3.92,-7.18 -2.35,-41.4 -2.36,-52.17l-34.38 -7.11c-11.38,-2.68 -22,-5 -33.86,-7.62l-135.71 -30.2c-6.21,-1.3 -11.02,-2.31 -15.31,-3.74l0 33.27c0.68,2.05 1.06,4.38 1.08,7.04l-0.08 151.78c0,17.22 -3.12,33.73 8.8,37.45 3.75,1.15 8.16,1.65 12.54,1.65l506.04 -3.42c10.08,0 18.09,-1.26 20.48,-10.31 2.26,-8.53 0.26,-155.73 0.78,-181.76 0.01,-1.12 0.13,-2.18 0.3,-3.18zm-549.94 -70.36l0 -56.45 0 -37.19c0,-2.78 3.03,-5.7 4.91,-6.94 2.53,-1.68 5.25,-2.54 9.31,-2.54l521.5 0c7.36,0 14.22,4.22 14.22,9.48l0 37.19 0 56.45c0,10.9 -11.27,12.07 -20.14,14.24 -43.37,10.52 -96.28,21.2 -141.5,31.51 -7.72,1.76 -51.39,12.33 -57.62,12.33 0,-9.85 0.15,-23.72 -13.04,-23.72l-85.34 0c-13.19,0 -13.04,13.87 -13.04,23.72 -5.89,0 -50,-10.54 -56.65,-12.1l-141.53 -31.5c-9.58,-2.27 -21.08,-3.15 -21.08,-14.48z"/>
 </g>
</svg>
